<svg width="870" height="627" viewBox="0 0 870 627" fill="none" xmlns="http://www.w3.org/2000/svg">
<g clip-path="url(#clip0_3003_33)">
<path d="M125.545 539.096V540.72C125.547 543.411 126.617 545.99 128.519 547.893C130.422 549.795 133.002 550.865 135.692 550.868H221.744C224.435 550.867 227.015 549.797 228.918 547.894C230.821 545.991 231.891 543.411 231.892 540.72V539.096C231.897 536.722 231.063 534.422 229.537 532.602C229.029 531.998 228.455 531.453 227.824 530.978H183.191C182.653 530.978 182.137 530.764 181.756 530.384C181.375 530.003 181.162 529.487 181.161 528.949H135.692C133.002 528.952 130.423 530.023 128.521 531.925C126.619 533.827 125.548 536.406 125.545 539.096Z" fill="#3F3D56"/>
<path d="M173.039 625.151H183.593V550.464H173.039V625.151Z" fill="#3F3D56"/>
<path d="M143.002 624.78C143.002 625.92 158.995 625.221 178.722 625.221C198.449 625.221 214.442 625.92 214.442 624.78C214.442 623.64 198.449 614.597 178.722 614.597C158.995 614.597 143.002 623.64 143.002 624.78Z" fill="#3F3D56"/>
<path d="M142.105 537.383L178.117 543.131L219.958 549.812L234.465 552.126C235.858 552.345 237.281 552.004 238.422 551.176C239.563 550.348 240.33 549.101 240.554 547.709L241.211 543.601L241.82 539.778L242.323 536.628C242.437 535.924 242.406 535.204 242.233 534.511C242.06 533.819 241.748 533.169 241.317 532.601C240.806 531.903 240.127 531.344 239.344 530.978H183.191C182.653 530.978 182.137 530.764 181.756 530.383C181.375 530.003 181.162 529.487 181.161 528.948V527.349C181.162 526.811 181.375 526.295 181.756 525.914C182.137 525.534 182.653 525.32 183.191 525.32H205.256L195.084 523.696L163.813 518.703L145.556 515.789C144.16 515.568 142.733 515.909 141.588 516.739C140.444 517.568 139.675 518.818 139.451 520.213L137.681 531.286C137.465 532.681 137.809 534.104 138.637 535.246C139.466 536.388 140.713 537.156 142.105 537.383Z" fill="#008080"/>
<path d="M219.958 535.841V597.709C219.96 599.118 220.521 600.47 221.517 601.466C222.514 602.463 223.865 603.024 225.275 603.026H236.502C237.912 603.024 239.263 602.463 240.26 601.466C241.257 600.47 241.818 599.118 241.82 597.709V535.841C241.822 534.667 241.43 533.527 240.708 532.602C240.173 531.891 239.462 531.331 238.646 530.978H223.124C222.311 531.334 221.604 531.893 221.07 532.602C220.349 533.527 219.957 534.667 219.958 535.841Z" fill="#008080"/>
<path d="M186.121 431.125C186.179 431.677 186.321 432.217 186.544 432.725C186.882 433.501 187.403 434.183 188.062 434.714L188.086 434.73L220.12 460.716L220.591 461.089L227.224 466.472L229.229 468.095H263.917L261.92 466.472L234.505 444.228L216.134 429.323L201.838 417.731C201.002 417.049 199.976 416.641 198.9 416.562C198.895 416.557 198.89 416.554 198.883 416.554C198.564 416.531 198.243 416.536 197.925 416.57C197.449 416.618 196.982 416.733 196.537 416.911C196.233 417.021 195.944 417.168 195.677 417.349C195.172 417.657 194.724 418.05 194.353 418.51L187.388 427.091L187.283 427.229C186.841 427.769 186.511 428.392 186.312 429.061C186.112 429.73 186.048 430.431 186.121 431.125Z" fill="#008080"/>
<path d="M188.086 434.73C188.69 436.239 189.568 437.624 190.676 438.813L212.002 461.723C212.518 462.196 213.121 462.563 213.779 462.803C214.436 463.042 215.135 463.15 215.834 463.119C216.533 463.088 217.219 462.919 217.853 462.622C218.487 462.326 219.056 461.907 219.527 461.39L220.12 460.716L220.38 460.424L229.594 450.089L233.556 445.641C233.819 445.366 234.048 445.061 234.237 444.732C234.335 444.569 234.424 444.399 234.505 444.228C234.838 443.47 234.99 442.645 234.952 441.817C234.925 441.113 234.756 440.422 234.457 439.785C234.157 439.147 233.732 438.577 233.206 438.107L208.479 419.208C205.75 417.116 202.315 416.167 198.9 416.562C198.895 416.557 198.89 416.554 198.883 416.554C198.125 416.649 197.375 416.806 196.643 417.024C196.318 417.114 196.002 417.227 195.677 417.349C193.58 418.138 191.721 419.452 190.278 421.165C188.708 423.01 187.674 425.25 187.287 427.641C186.901 430.033 187.177 432.484 188.086 434.73Z" fill="#2F2E41"/>
<path d="M177.96 397.695C200.432 397.695 218.65 379.477 218.65 357.005C218.65 334.533 200.432 316.315 177.96 316.315C155.488 316.315 137.271 334.533 137.271 357.005C137.271 379.477 155.488 397.695 177.96 397.695Z" fill="#008080"/>
<path d="M167.125 531.774L182.217 534.177L182.558 534.233L205.499 537.895L219.958 540.208L241.211 543.602L241.82 543.699L244.978 544.202L259.485 546.516C260.877 546.736 262.301 546.394 263.442 545.567C264.583 544.739 265.35 543.492 265.573 542.1L266.84 534.177L267.343 531.027C267.343 531.011 267.351 530.994 267.351 530.978H183.191C182.653 530.978 182.137 530.764 181.756 530.383C181.375 530.003 181.162 529.487 181.161 528.949V527.349C181.162 526.811 181.375 526.295 181.756 525.914C182.137 525.534 182.653 525.32 183.191 525.32H209.786V516.447L208.162 516.187L200.141 514.904L170.567 510.188C169.173 509.966 167.749 510.307 166.605 511.135C165.462 511.963 164.695 513.21 164.47 514.604L163.813 518.704L162.701 525.685C162.483 527.079 162.826 528.502 163.655 529.643C164.485 530.784 165.732 531.55 167.125 531.774Z" fill="#008080"/>
<path d="M122.581 495.827C122.581 528.997 125.951 548.838 177.906 543.155C177.979 543.147 178.044 543.139 178.117 543.131C187.384 542.216 196.549 540.463 205.499 537.895C210.151 536.536 214.672 534.765 219.008 532.602C220.031 532.082 221.013 531.538 221.979 530.978H183.191C182.653 530.978 182.137 530.764 181.756 530.383C181.376 530.003 181.162 529.487 181.161 528.949V527.349C181.162 526.811 181.376 526.295 181.756 525.915C182.137 525.534 182.653 525.32 183.191 525.32H209.786V474.046C209.788 472.469 210.416 470.956 211.531 469.841C212.647 468.725 214.159 468.098 215.736 468.095H237.371C237.184 467.56 236.998 467.016 236.795 466.472C234.765 460.856 232.359 455.382 229.594 450.09C225.806 442.739 221.297 435.783 216.134 429.323C212.539 424.822 208.503 420.691 204.087 416.992C195.944 410.27 187.08 406.114 178.085 406.114C144.914 406.114 122.581 462.656 122.581 495.827Z" fill="#2F2E41"/>
<path d="M177.105 372.086L177.063 370.565C179.892 370.487 182.386 370.309 184.26 368.94C184.791 368.53 185.228 368.01 185.54 367.416C185.852 366.822 186.033 366.167 186.07 365.497C186.103 365.088 186.041 364.676 185.889 364.294C185.737 363.913 185.499 363.571 185.194 363.297C183.95 362.246 181.948 362.586 180.489 363.255L179.231 363.832L181.643 346.201L183.15 346.407L181.098 361.405C181.938 361.093 182.842 360.997 183.729 361.124C184.616 361.252 185.457 361.6 186.175 362.135C186.658 362.557 187.037 363.085 187.283 363.677C187.528 364.27 187.633 364.911 187.589 365.551C187.545 366.451 187.304 367.331 186.884 368.129C186.464 368.926 185.874 369.622 185.156 370.168C182.749 371.928 179.62 372.015 177.105 372.086Z" fill="#2F2E41"/>
<path d="M198.789 347.701H190.6V349.221H198.789V347.701Z" fill="#2F2E41"/>
<path d="M172.94 347.701H164.751V349.221H172.94V347.701Z" fill="#2F2E41"/>
<path d="M145.486 345.825C148.651 341.062 154.219 339.042 159.71 338.551C165.891 337.998 171.862 339.19 177.897 340.348C184.538 341.622 191.566 342.815 198.258 341.204C201.218 340.519 203.984 339.171 206.347 337.262C208.711 335.352 210.61 332.931 211.902 330.181C214.352 324.816 214.88 318.77 213.397 313.061C211.648 306.998 208.099 301.61 203.218 297.611C193.588 289.375 180.556 285.674 168.021 286.022C155.534 286.345 143.464 290.589 133.523 298.152C123.566 305.989 116.559 316.97 113.646 329.302C110.6 341.533 111.592 354.421 116.475 366.042C119.218 372.405 123.185 378.142 126.246 384.344C129.096 390.12 131.291 396.834 129.517 403.276C128.738 406.15 127.24 408.778 125.165 410.913C123.091 413.049 120.507 414.622 117.657 415.485C115.048 416.17 112.287 415.989 109.789 414.969C107.291 413.949 105.192 412.146 103.808 409.831C100.941 405.31 100.872 399.388 105.177 395.738C106.262 394.802 107.526 394.097 108.893 393.666C110.259 393.234 111.699 393.085 113.125 393.227C114.551 393.369 115.933 393.8 117.187 394.493C118.441 395.187 119.541 396.128 120.42 397.259C122.167 399.527 122.949 402.393 122.596 405.234C122.384 406.67 124.581 407.289 124.795 405.84C125.309 402.836 124.739 399.746 123.188 397.123C121.636 394.499 119.204 392.512 116.324 391.514C113.443 390.517 110.303 390.574 107.461 391.676C104.619 392.778 102.261 394.854 100.806 397.532C98.2102 402.413 99.6109 408.301 102.906 412.473C104.607 414.695 106.911 416.38 109.544 417.327C112.177 418.274 115.027 418.442 117.753 417.812C123.752 416.426 128.659 411.659 130.967 406.056C133.536 399.819 132.359 392.859 129.854 386.806C127.147 380.264 123.127 374.396 119.947 368.092C117.069 362.394 115.237 356.226 114.539 349.881C113.143 337.139 116.034 324.295 122.757 313.382C129.609 302.638 140.068 294.689 152.255 290.963C164.353 287.076 177.414 287.421 189.29 291.943C200.88 296.509 212.071 306.461 211.936 319.826C211.879 325.536 209.759 331.358 205.386 335.166C200.16 339.717 192.883 340.106 186.313 339.396C179.702 338.681 173.281 336.75 166.641 336.258C160.866 335.829 154.635 336.275 149.478 339.144C147.077 340.483 145.032 342.38 143.517 344.674C142.703 345.9 144.677 347.044 145.486 345.825Z" fill="#2F2E41"/>
<path d="M151.961 445.413C152.026 445.561 152.099 445.704 152.18 445.843C152.261 445.989 152.351 446.13 152.448 446.266L170.242 471.878L171.623 473.867L186.138 494.747L200.141 514.904L205.808 523.071C205.96 523.293 206.131 523.503 206.32 523.696C207.196 524.618 208.374 525.194 209.64 525.32H209.786V490.485L208.162 488.147L189.953 461.942L170.397 433.796C169.591 432.639 168.36 431.847 166.972 431.596C165.584 431.345 164.153 431.655 162.993 432.457L156.994 436.621L153.771 438.862C152.752 439.571 152.013 440.614 151.682 441.811C151.352 443.007 151.45 444.282 151.961 445.413Z" fill="#008080"/>
<path d="M149.176 444.788L149.98 446.404L149.988 446.412L150.207 446.842L163.253 472.739C163.988 473.943 165.171 474.807 166.542 475.142C167.912 475.477 169.36 475.255 170.568 474.525L171.412 473.997L171.623 473.868L188.444 463.314C189.044 462.95 189.566 462.472 189.981 461.905C190.395 461.339 190.693 460.696 190.858 460.013C191.022 459.331 191.05 458.623 190.939 457.93C190.829 457.237 190.582 456.572 190.213 455.975L171.737 430.923C169.925 428.468 167.324 426.711 164.37 425.948C161.416 425.185 158.29 425.463 155.517 426.734C154.891 427.016 154.288 427.347 153.714 427.724C150.998 429.519 149.036 432.248 148.2 435.393C147.363 438.539 147.711 441.882 149.176 444.788Z" fill="#2F2E41"/>
<path d="M244.978 530.978V592.099C244.98 593.509 245.541 594.86 246.537 595.857C247.534 596.854 248.886 597.415 250.295 597.417H261.523C262.932 597.414 264.283 596.853 265.28 595.857C266.277 594.86 266.838 593.509 266.84 592.099V530.978H244.978Z" fill="#008080"/>
<path d="M179.538 527.349V528.948C179.539 529.794 179.832 530.612 180.368 531.266C180.903 531.92 181.648 532.369 182.477 532.537C182.59 532.553 182.704 532.577 182.818 532.585C182.939 532.594 183.061 532.602 183.191 532.602H308.34C310.349 532.601 312.276 531.803 313.698 530.383C315.119 528.963 315.919 527.037 315.922 525.027V474.046C315.919 472.036 315.119 470.11 313.698 468.69C312.276 467.27 310.349 466.472 308.34 466.472H215.736C213.728 466.474 211.803 467.273 210.383 468.693C208.963 470.112 208.164 472.038 208.162 474.046V523.696H183.191C182.222 523.696 181.293 524.081 180.608 524.766C179.923 525.451 179.538 526.38 179.538 527.349Z" fill="white"/>
<path d="M179.538 527.349V528.948C179.539 529.794 179.832 530.612 180.368 531.266C180.903 531.92 181.648 532.369 182.477 532.537C182.59 532.553 182.704 532.577 182.818 532.585C182.939 532.594 183.061 532.602 183.191 532.602H308.34C310.349 532.601 312.276 531.803 313.698 530.383C315.119 528.963 315.919 527.037 315.922 525.027V474.046C315.919 472.036 315.119 470.11 313.698 468.69C312.276 467.27 310.349 466.472 308.34 466.472H215.736C213.728 466.474 211.803 467.273 210.383 468.693C208.963 470.112 208.164 472.038 208.162 474.046V523.696H183.191C182.222 523.696 181.293 524.081 180.608 524.766C179.923 525.451 179.538 526.38 179.538 527.349ZM181.161 528.948V527.349C181.162 526.811 181.376 526.295 181.756 525.914C182.137 525.534 182.653 525.32 183.191 525.32H209.786V474.046C209.788 472.468 210.416 470.956 211.531 469.841C212.647 468.725 214.159 468.098 215.736 468.095H308.34C309.918 468.096 311.432 468.723 312.549 469.838C313.667 470.954 314.295 472.467 314.298 474.046V525.027C314.295 526.606 313.667 528.119 312.549 529.235C311.432 530.351 309.918 530.977 308.34 530.978H183.191C182.653 530.978 182.137 530.764 181.756 530.383C181.376 530.003 181.162 529.487 181.161 528.948Z" fill="#3F3D56"/>
<path d="M262.041 505.78C265.489 505.78 268.284 502.985 268.284 499.537C268.284 496.09 265.489 493.294 262.041 493.294C258.593 493.294 255.798 496.09 255.798 499.537C255.798 502.985 258.593 505.78 262.041 505.78Z" fill="#008080"/>
<path d="M209.81 524.557H208.187V531.863H209.81V524.557Z" fill="#3F3D56"/>
<path d="M868.76 32.0864H436.76C436.495 32.0864 436.24 31.9811 436.053 31.7935C435.865 31.606 435.76 31.3516 435.76 31.0864C435.76 30.8212 435.865 30.5669 436.053 30.3793C436.24 30.1918 436.495 30.0864 436.76 30.0864H868.76C869.025 30.0864 869.279 30.1918 869.467 30.3793C869.655 30.5669 869.76 30.8212 869.76 31.0864C869.76 31.3516 869.655 31.606 869.467 31.7935C869.279 31.9811 869.025 32.0864 868.76 32.0864Z" fill="#CACACA"/>
<path d="M474.743 18.0866C479.738 18.0866 483.787 14.0378 483.787 9.04331C483.787 4.04883 479.738 0 474.743 0C469.749 0 465.7 4.04883 465.7 9.04331C465.7 14.0378 469.749 18.0866 474.743 18.0866Z" fill="#3F3D56"/>
<path d="M505.984 18.0866C510.978 18.0866 515.027 14.0378 515.027 9.04331C515.027 4.04883 510.978 0 505.984 0C500.989 0 496.941 4.04883 496.941 9.04331C496.941 14.0378 500.989 18.0866 505.984 18.0866Z" fill="#3F3D56"/>
<path d="M537.224 18.0866C542.219 18.0866 546.268 14.0378 546.268 9.04331C546.268 4.04883 542.219 0 537.224 0C532.23 0 528.181 4.04883 528.181 9.04331C528.181 14.0378 532.23 18.0866 537.224 18.0866Z" fill="#3F3D56"/>
<path d="M519.094 186.269C508.584 186.269 498.312 183.153 489.574 177.314C480.836 171.476 474.025 163.178 470.003 153.468C465.982 143.759 464.93 133.076 466.98 122.769C469.03 112.462 474.09 102.994 481.521 95.5629C488.952 88.1319 498.42 83.0713 508.727 81.021C519.034 78.9708 529.718 80.023 539.427 84.0446C549.136 88.0661 557.434 94.8765 563.273 103.614C569.111 112.352 572.228 122.625 572.228 133.134C572.212 147.222 566.609 160.727 556.648 170.689C546.686 180.65 533.181 186.253 519.094 186.269ZM519.094 82.0001C508.98 82 499.094 84.999 490.685 90.6177C482.276 96.2364 475.721 104.223 471.851 113.566C467.981 122.91 466.968 133.191 468.941 143.11C470.914 153.03 475.784 162.141 482.936 169.292C490.087 176.443 499.198 181.314 509.117 183.287C519.037 185.26 529.318 184.247 538.662 180.377C548.005 176.506 555.991 169.952 561.61 161.543C567.229 153.134 570.228 143.248 570.228 133.134C570.212 119.577 564.82 106.58 555.234 96.994C545.648 87.4078 532.65 82.0155 519.094 82.0001Z" fill="#CACACA"/>
<path d="M516.133 452.677C529.78 452.677 540.843 441.614 540.843 427.968C540.843 414.321 529.78 403.258 516.133 403.258C502.487 403.258 491.424 414.321 491.424 427.968C491.424 441.614 502.487 452.677 516.133 452.677Z" fill="#E4E4E4"/>
<path d="M502.407 437.126L502.382 436.203C504.099 436.155 505.614 436.047 506.752 435.216C507.075 434.966 507.34 434.651 507.529 434.29C507.719 433.929 507.829 433.532 507.851 433.125C507.871 432.876 507.834 432.626 507.741 432.394C507.649 432.163 507.505 431.955 507.319 431.788C506.889 431.528 506.397 431.388 505.894 431.383C505.391 431.379 504.897 431.51 504.462 431.763L503.698 432.114L505.163 421.407L506.078 421.532L504.832 430.64C505.342 430.45 505.891 430.392 506.43 430.469C506.968 430.547 507.479 430.758 507.915 431.083C508.208 431.339 508.439 431.66 508.588 432.02C508.737 432.379 508.8 432.769 508.774 433.157C508.747 433.704 508.601 434.238 508.346 434.723C508.09 435.207 507.732 435.63 507.297 435.961C505.834 437.03 503.934 437.083 502.407 437.126Z" fill="#2F2E41"/>
<path d="M515.575 422.317H510.602V423.241H515.575V422.317Z" fill="#2F2E41"/>
<path d="M499.878 422.317H494.905V423.241H499.878V422.317Z" fill="#2F2E41"/>
<path d="M512.414 412.01C506.453 416.101 497.297 413.846 494.595 406.934C493.935 405.252 493.641 403.449 493.732 401.645C493.822 399.84 494.296 398.076 495.12 396.468C496.108 394.785 497.453 393.339 499.06 392.231C500.667 391.124 502.497 390.382 504.422 390.058C509.534 388.999 514.819 390.421 519.492 392.488C519.661 392.576 519.852 392.61 520.041 392.585C520.229 392.561 520.406 392.479 520.546 392.352C525.01 388.793 531.494 390.338 536.071 392.826C541.02 395.605 545.206 399.565 548.255 404.352C551.365 409.099 553.308 414.514 553.926 420.156C554.492 426.252 553.496 432.392 551.033 437.998C548.57 443.603 544.721 448.489 539.848 452.196C538.962 452.859 539.828 454.37 540.726 453.698C545.646 450.062 549.596 445.271 552.226 439.747C554.856 434.223 556.085 428.136 555.805 422.025C555.525 415.913 553.744 409.965 550.62 404.704C547.496 399.444 543.124 395.034 537.892 391.864C532.402 388.562 524.752 386.788 519.316 391.122L520.37 390.986C515.697 388.919 510.576 387.46 505.425 388.138C501.05 388.713 496.752 390.811 494.243 394.548C493.141 396.262 492.419 398.193 492.123 400.21C491.828 402.226 491.967 404.283 492.53 406.242C493.08 408.178 494.072 409.96 495.429 411.447C496.785 412.934 498.468 414.086 500.345 414.812C502.449 415.652 504.724 415.972 506.978 415.746C509.232 415.52 511.397 414.754 513.292 413.512C514.209 412.883 513.34 411.375 512.414 412.01Z" fill="#2F2E41"/>
<path d="M517.861 165.517C531.332 165.517 542.252 154.597 542.252 141.127C542.252 127.656 531.332 116.736 517.861 116.736C504.391 116.736 493.47 127.656 493.47 141.127C493.47 154.597 504.391 165.517 517.861 165.517Z" fill="#E4E4E4"/>
<path d="M512.104 151.365C510.523 151.321 508.556 151.266 507.04 150.159C506.588 149.816 506.217 149.378 505.953 148.876C505.689 148.375 505.537 147.821 505.509 147.255C505.482 146.852 505.548 146.449 505.702 146.076C505.857 145.703 506.095 145.371 506.399 145.106C506.851 144.769 507.38 144.55 507.937 144.47C508.495 144.39 509.064 144.45 509.593 144.646L508.302 135.212L509.25 135.083L510.767 146.173L509.976 145.81C509.526 145.548 509.013 145.412 508.492 145.417C507.972 145.421 507.462 145.566 507.016 145.836C506.824 146.009 506.674 146.224 506.579 146.464C506.483 146.704 506.444 146.963 506.465 147.221C506.488 147.643 506.602 148.054 506.799 148.428C506.995 148.802 507.27 149.129 507.604 149.387C508.784 150.248 510.352 150.359 512.131 150.409L512.104 151.365Z" fill="#2F2E41"/>
<path d="M503.615 136.026H498.464V136.982H503.615V136.026Z" fill="#2F2E41"/>
<path d="M519.876 136.026H514.724V136.982H519.876V136.026Z" fill="#2F2E41"/>
<path d="M520.124 123.096C517.161 126.972 512.456 129.572 507.484 128.956C505.177 128.719 503.004 127.759 501.276 126.212C499.548 124.665 498.354 122.612 497.863 120.345C497.436 118.111 497.551 115.807 498.2 113.627C498.849 111.447 500.012 109.456 501.592 107.819C504.943 104.295 509.74 102.398 514.487 101.748C518.976 101.22 523.526 101.646 527.84 102.998C532.153 104.349 536.132 106.597 539.517 109.593C542.931 112.53 545.657 116.183 547.5 120.294C549.275 124.373 550.12 128.797 549.975 133.243C549.857 137.666 548.843 142.019 546.995 146.039C545.147 150.058 542.503 153.661 539.222 156.63C538.398 157.352 537.534 158.028 536.636 158.656C535.878 159.187 535.161 157.944 535.912 157.417C539.254 154.976 542.07 151.884 544.188 148.329C546.307 144.773 547.686 140.826 548.243 136.724C548.866 132.614 548.588 128.417 547.428 124.425C546.267 120.433 544.252 116.741 541.522 113.606C538.766 110.463 535.41 107.9 531.653 106.069C527.895 104.237 523.81 103.173 519.636 102.938C511.243 102.572 500.755 106.319 499.184 115.661C498.481 119.849 500.046 124.25 503.883 126.347C505.915 127.369 508.204 127.765 510.461 127.484C512.718 127.203 514.841 126.258 516.56 124.769C517.424 124.062 518.205 123.258 518.885 122.372C519.439 121.649 520.685 122.363 520.124 123.096Z" fill="#2F2E41"/>
<path d="M519.094 326.434C508.584 326.434 498.312 323.318 489.574 317.479C480.836 311.641 474.025 303.343 470.003 293.633C465.982 283.924 464.93 273.241 466.98 262.934C469.03 252.627 474.09 243.159 481.521 235.728C488.952 228.297 498.42 223.236 508.727 221.186C519.034 219.136 529.718 220.188 539.427 224.21C549.136 228.231 557.434 235.042 563.273 243.779C569.111 252.517 572.228 262.79 572.228 273.299C572.212 287.387 566.609 300.892 556.648 310.854C546.686 320.815 533.181 326.418 519.094 326.434ZM519.094 222.165C508.98 222.165 499.094 225.164 490.685 230.783C482.276 236.401 475.721 244.388 471.851 253.731C467.981 263.075 466.968 273.356 468.941 283.275C470.914 293.195 475.784 302.306 482.936 309.457C490.087 316.608 499.198 321.479 509.117 323.452C519.037 325.425 529.318 324.412 538.662 320.542C548.005 316.671 555.991 310.117 561.61 301.708C567.229 293.299 570.228 283.413 570.228 273.299C570.212 259.742 564.82 246.745 555.234 237.159C545.648 227.573 532.65 222.181 519.094 222.165Z" fill="#CACACA"/>
<path d="M519.094 476C508.585 476 498.311 472.884 489.574 467.045C480.836 461.207 474.025 452.908 470.003 443.199C465.982 433.49 464.93 422.807 466.98 412.5C469.03 402.192 474.091 392.725 481.522 385.294C488.953 377.863 498.42 372.802 508.727 370.752C519.034 368.702 529.718 369.754 539.427 373.776C549.136 377.797 557.435 384.608 563.273 393.346C569.112 402.084 572.228 412.357 572.228 422.866C572.212 436.953 566.609 450.459 556.648 460.42C546.686 470.381 533.181 475.984 519.094 476ZM519.094 371.731C508.98 371.731 499.094 374.73 490.685 380.349C482.276 385.967 475.722 393.953 471.851 403.297C467.981 412.641 466.968 422.922 468.941 432.841C470.914 442.76 475.784 451.872 482.936 459.023C490.087 466.174 499.198 471.044 509.117 473.017C519.036 474.991 529.318 473.978 538.661 470.108C548.005 466.238 555.991 459.684 561.61 451.275C567.229 442.866 570.228 432.979 570.228 422.866C570.213 409.309 564.82 396.311 555.234 386.725C545.648 377.139 532.651 371.746 519.094 371.731Z" fill="#CACACA"/>
<path d="M515.477 303.611C529.413 303.611 540.71 292.314 540.71 278.377C540.71 264.441 529.413 253.144 515.477 253.144C501.54 253.144 490.243 264.441 490.243 278.377C490.243 292.314 501.54 303.611 515.477 303.611Z" fill="#E4E4E4"/>
<path d="M507.079 288.97C505.443 288.925 503.408 288.868 501.84 287.722C501.373 287.367 500.989 286.914 500.715 286.395C500.442 285.876 500.285 285.304 500.256 284.718C500.228 284.301 500.296 283.884 500.456 283.498C500.615 283.112 500.862 282.769 501.177 282.494C501.644 282.146 502.191 281.919 502.768 281.836C503.345 281.753 503.934 281.816 504.481 282.019L503.145 272.259L504.126 272.125L505.696 283.599L504.877 283.223C504.411 282.952 503.881 282.811 503.343 282.816C502.804 282.821 502.276 282.971 501.815 283.25C501.617 283.429 501.462 283.651 501.363 283.9C501.264 284.148 501.224 284.416 501.245 284.683C501.269 285.119 501.387 285.545 501.59 285.931C501.793 286.318 502.078 286.656 502.423 286.923C503.644 287.815 505.266 287.93 507.107 287.981L507.079 288.97Z" fill="#2F2E41"/>
<path d="M498.297 273.101H492.967V274.09H498.297V273.101Z" fill="#2F2E41"/>
<path d="M515.12 273.101H509.79V274.09H515.12V273.101Z" fill="#2F2E41"/>
<path d="M516.747 304.398L534.201 297.624C537.055 296.516 539.925 295.442 542.764 294.296C543.98 293.872 545.1 293.212 546.06 292.354C546.895 291.469 547.465 290.367 547.703 289.174C548.178 286.546 548.33 283.871 548.156 281.206C548.122 278.35 547.887 275.499 547.452 272.676C546.69 267.371 544.9 262.265 542.183 257.644C537.288 249.613 528.855 243.571 519.154 244.053C514.596 244.212 510.234 245.945 506.81 248.959C506.462 249.375 506.071 249.753 505.645 250.088C505.348 250.199 505.025 250.221 504.717 250.15C504.309 250.124 503.902 250.104 503.494 250.09C502.079 250.03 500.661 250.09 499.256 250.268C496.695 250.545 494.268 251.552 492.265 253.171C491.388 253.868 490.657 254.731 490.115 255.711C489.572 256.691 489.227 257.768 489.101 258.881C489.033 259.914 489.204 260.948 489.6 261.905C489.996 262.862 490.606 263.714 491.384 264.398C493.466 266.153 496.437 265.536 498.935 265.404L508.085 264.919L512.721 264.673C513.676 264.623 513.673 266.107 512.721 266.158L500.399 266.81C498.404 267.003 496.4 267.084 494.396 267.054C492.873 266.985 491.419 266.4 490.273 265.395C489.226 264.433 488.446 263.217 488.009 261.864C487.573 260.511 487.494 259.068 487.781 257.676C488.161 256.179 488.851 254.779 489.806 253.566C490.761 252.353 491.96 251.353 493.326 250.633C496.931 248.599 501.236 248.404 505.27 248.705L504.745 248.922C509.308 244.025 516.298 241.957 522.859 242.681C529.787 243.445 535.949 247.31 540.377 252.595C545.313 258.487 548.003 265.835 549.048 273.39C549.593 277.47 549.772 281.589 549.584 285.7C549.591 287.513 549.281 289.314 548.667 291.02C547.967 292.68 546.7 294.038 545.092 294.852C543.249 295.742 541.355 296.521 539.418 297.183L532.988 299.679L520.357 304.582L517.142 305.83C516.251 306.176 515.865 304.741 516.747 304.398Z" fill="#2F2E41"/>
<path d="M536.521 246.287C536.521 244.77 536.971 243.288 537.814 242.027C538.656 240.765 539.854 239.782 541.255 239.202C542.657 238.621 544.199 238.47 545.686 238.766C547.174 239.061 548.541 239.792 549.613 240.864C550.686 241.937 551.416 243.303 551.712 244.791C552.008 246.279 551.856 247.821 551.276 249.222C550.695 250.623 549.712 251.821 548.451 252.664C547.19 253.507 545.707 253.956 544.19 253.956C542.157 253.954 540.208 253.145 538.77 251.708C537.332 250.27 536.523 248.321 536.521 246.287ZM538.005 246.287C538.005 247.511 538.368 248.706 539.048 249.723C539.727 250.74 540.693 251.533 541.823 252.001C542.954 252.469 544.197 252.592 545.397 252.353C546.597 252.115 547.699 251.526 548.564 250.661C549.428 249.796 550.018 248.694 550.256 247.494C550.495 246.294 550.372 245.051 549.904 243.92C549.436 242.79 548.643 241.824 547.626 241.145C546.609 240.465 545.413 240.103 544.19 240.103C542.551 240.104 540.978 240.757 539.819 241.916C538.66 243.075 538.007 244.648 538.005 246.287Z" fill="#2F2E41"/>
<path d="M830.336 155.437H655.709C653.527 155.437 651.435 154.571 649.893 153.028C648.35 151.486 647.483 149.393 647.483 147.212C647.483 145.031 648.35 142.938 649.893 141.396C651.435 139.853 653.527 138.987 655.709 138.987H830.336C831.416 138.987 832.485 139.2 833.483 139.613C834.481 140.026 835.388 140.632 836.152 141.396C836.915 142.16 837.521 143.066 837.935 144.064C838.348 145.062 838.561 146.132 838.561 147.212C838.561 148.292 838.348 149.362 837.935 150.36C837.521 151.358 836.915 152.264 836.152 153.028C835.388 153.792 834.481 154.398 833.483 154.811C832.485 155.224 831.416 155.437 830.336 155.437Z" fill="#E4E4E4"/>
<path d="M774.025 127.282H655.709C653.527 127.282 651.435 126.415 649.893 124.873C648.35 123.33 647.483 121.238 647.483 119.057C647.483 116.875 648.35 114.783 649.893 113.241C651.435 111.698 653.527 110.832 655.709 110.832H774.025C775.105 110.832 776.174 111.044 777.172 111.458C778.17 111.871 779.077 112.477 779.841 113.241C780.605 114.004 781.21 114.911 781.624 115.909C782.037 116.907 782.25 117.977 782.25 119.057C782.25 120.137 782.037 121.206 781.624 122.204C781.21 123.202 780.605 124.109 779.841 124.873C779.077 125.637 778.17 126.242 777.172 126.656C776.174 127.069 775.105 127.282 774.025 127.282Z" fill="#E4E4E4"/>
<path d="M830.336 295.602H655.709C653.527 295.602 651.435 294.736 649.893 293.193C648.35 291.651 647.483 289.558 647.483 287.377C647.483 285.196 648.35 283.103 649.893 281.561C651.435 280.018 653.527 279.152 655.709 279.152H830.336C832.517 279.152 834.609 280.018 836.152 281.561C837.694 283.103 838.561 285.196 838.561 287.377C838.561 289.558 837.694 291.651 836.152 293.193C834.609 294.736 832.517 295.602 830.336 295.602Z" fill="#E4E4E4"/>
<path d="M774.025 267.447H655.709C653.529 267.445 651.439 266.577 649.898 265.035C648.358 263.492 647.493 261.402 647.493 259.222C647.493 257.042 648.358 254.951 649.898 253.409C651.439 251.867 653.529 250.999 655.709 250.997H774.025C776.206 250.997 778.298 251.863 779.841 253.406C781.383 254.948 782.25 257.04 782.25 259.222C782.25 261.403 781.383 263.495 779.841 265.038C778.298 266.58 776.206 267.447 774.025 267.447Z" fill="#E4E4E4"/>
<path d="M830.336 445.168H655.709C653.527 445.168 651.435 444.302 649.893 442.759C648.35 441.217 647.483 439.124 647.483 436.943C647.483 434.762 648.35 432.669 649.893 431.127C651.435 429.584 653.527 428.718 655.709 428.718H830.336C832.517 428.718 834.609 429.584 836.152 431.127C837.694 432.669 838.561 434.762 838.561 436.943C838.561 439.124 837.694 441.217 836.152 442.759C834.609 444.302 832.517 445.168 830.336 445.168Z" fill="#E4E4E4"/>
<path d="M774.025 417.013H655.709C653.527 417.013 651.435 416.146 649.893 414.604C648.35 413.061 647.483 410.969 647.483 408.788C647.483 406.606 648.35 404.514 649.893 402.972C651.435 401.429 653.527 400.562 655.709 400.562H774.025C776.206 400.562 778.298 401.429 779.841 402.972C781.383 404.514 782.25 406.606 782.25 408.788C782.25 410.969 781.383 413.061 779.841 414.604C778.298 416.146 776.206 417.013 774.025 417.013Z" fill="#E4E4E4"/>
<path d="M382 627H1C0.734784 627 0.480429 626.895 0.292892 626.707C0.105356 626.52 0 626.265 0 626C0 625.735 0.105356 625.48 0.292892 625.293C0.480429 625.105 0.734784 625 1 625H382C382.265 625 382.52 625.105 382.707 625.293C382.895 625.48 383 625.735 383 626C383 626.265 382.895 626.52 382.707 626.707C382.52 626.895 382.265 627 382 627Z" fill="#3F3D56"/>
</g>
<defs>
<clipPath id="clip0_3003_33">
<rect width="869.76" height="627" fill="white"/>
</clipPath>
</defs>
</svg>
