<svg width="736" height="395" viewBox="0 0 736 395" fill="none" xmlns="http://www.w3.org/2000/svg">
<g clip-path="url(#clip0_3003_6)">
<path d="M611.44 125.698C610.73 126.488 610.03 127.278 609.34 128.078L609.33 128.088C599.829 138.972 591.215 150.599 583.57 162.858C582.97 163.808 582.38 164.768 581.8 165.728C563.768 195.392 551.393 228.142 545.3 262.318C545.29 262.378 545.28 262.428 545.27 262.488C543.91 270.158 542.884 277.878 542.19 285.648C541.64 291.678 541.3 297.725 541.17 303.788C540.61 329.168 542.64 357.448 526.13 376.728C519.93 383.968 511.68 389.028 502.66 392.218C499.943 393.176 497.172 393.971 494.36 394.598H450.24C449.64 394.518 449.04 394.428 448.43 394.338C444.72 393.788 441.02 393.178 437.32 392.568L437.11 392.538L436.58 392.708L433.36 393.758C433.36 393.658 433.35 393.558 433.35 393.458C433.34 393.278 433.33 393.088 433.33 392.908C433.32 392.678 433.31 392.448 433.3 392.218C433.29 391.988 433.28 391.768 433.28 391.538C433.26 391.158 433.24 390.768 433.24 390.378C431.1 330.958 437.18 269.488 465.64 217.358C475.295 199.718 487.662 183.706 502.29 169.908C531.39 142.498 568.93 124.698 608.4 125.598C609.41 125.618 610.42 125.648 611.44 125.698Z" fill="#F0F0F0"/>
<path d="M611.553 126.961C567.267 149.231 529.808 185.793 507.19 229.985C502.299 239.539 498.17 249.657 496.477 260.308C494.783 270.965 496.269 281.055 500.072 291.082C503.549 300.249 508.166 309.224 509.354 319.076C510.606 329.462 506.946 339.256 500.189 347.095C491.921 356.687 480.7 362.736 469.522 368.27C457.11 374.415 444.12 380.601 435.448 391.818C434.397 393.178 432.349 391.468 433.399 390.11C448.487 370.593 474.822 366.519 492.86 350.695C501.276 343.312 507.519 333.347 506.914 321.808C506.386 311.717 501.632 302.459 498.031 293.207C494.251 283.493 492.28 273.694 493.395 263.248C494.536 252.563 498.278 242.262 502.903 232.625C513.552 210.849 527.559 190.883 544.411 173.459C563.533 153.466 585.934 136.891 610.646 124.452C612.176 123.682 613.073 126.196 611.553 126.961Z" fill="white"/>
<path d="M513.784 215.232C506.851 210.345 501.882 203.152 499.763 194.939C497.644 186.725 498.513 178.026 502.216 170.395C502.971 168.853 505.402 169.953 504.646 171.497C501.185 178.597 500.376 186.7 502.365 194.344C504.353 201.989 509.009 208.67 515.492 213.183C516.899 214.166 515.183 216.209 513.784 215.232Z" fill="white"/>
<path d="M497.697 286.666C514.808 283.863 530.235 274.713 540.9 261.042C541.956 259.686 544.004 261.396 542.949 262.75C531.824 276.956 515.751 286.445 497.938 289.323C496.24 289.596 496.008 286.938 497.697 286.666Z" fill="white"/>
<path d="M564.907 156.724C567.196 159.175 570.057 161.018 573.233 162.089C576.41 163.16 579.803 163.425 583.108 162.861C584.802 162.567 585.032 165.225 583.349 165.518C579.695 166.124 575.948 165.827 572.436 164.651C568.923 163.475 565.752 161.457 563.199 158.774C562.937 158.541 562.774 158.217 562.742 157.868C562.711 157.519 562.813 157.171 563.029 156.895C563.256 156.625 563.581 156.455 563.933 156.423C564.285 156.392 564.635 156.5 564.907 156.724Z" fill="white"/>
<path d="M734.47 289.588C733.42 289.798 732.39 289.998 731.34 290.238C731.33 290.238 731.31 290.248 731.3 290.248C717.172 293.198 703.307 297.288 689.84 302.478L689.83 302.488C688.78 302.868 687.72 303.278 686.69 303.688H686.68C654.444 316.523 624.862 335.215 599.43 358.818C599.38 358.868 599.33 358.908 599.28 358.958C599.27 358.978 599.25 358.988 599.24 358.998C599.21 359.028 599.17 359.058 599.14 359.088C589.055 368.502 579.695 378.664 571.14 389.488C570.43 390.388 569.72 391.298 569.01 392.218C568.39 393.008 567.78 393.798 567.16 394.598H432.16C432.38 394.278 432.63 393.948 432.85 393.628C432.85 393.618 432.86 393.618 432.86 393.608C433.02 393.378 433.18 393.158 433.31 392.938C433.32 392.928 433.33 392.918 433.33 392.908C433.38 392.848 433.43 392.778 433.47 392.738C433.58 392.548 433.71 392.388 433.81 392.218C433.833 392.194 433.853 392.167 433.87 392.138C436.26 388.778 438.66 385.418 441.12 382.078V382.068C441.136 382.054 441.15 382.037 441.16 382.018C441.17 381.998 441.17 381.998 441.19 381.988C459.98 356.408 481.06 332.178 505.16 311.918C505.88 311.308 506.61 310.678 507.38 310.088C518.289 301.015 529.922 292.848 542.16 285.668C542.17 285.658 542.18 285.658 542.19 285.648C548.88 281.768 555.77 278.211 562.86 274.978C581.16 266.722 600.645 261.393 620.6 259.188C620.67 259.178 620.73 259.178 620.8 259.168C620.85 259.158 620.9 259.158 620.95 259.148C660.62 254.848 701.22 263.258 732.12 287.688C732.91 288.318 733.68 288.938 734.47 289.588Z" fill="#F0F0F0"/>
<path d="M457.51 392.218C462.49 392.778 467.47 393.678 472.46 394.598H454.26C452.32 394.438 450.38 394.338 448.43 394.338C446.35 394.305 444.27 394.392 442.2 394.598H432.16C432.16 394.608 432.15 394.608 432.15 394.618V394.598C432.176 394.391 432.253 394.193 432.376 394.023C432.498 393.854 432.661 393.718 432.85 393.628C432.935 393.58 433.026 393.543 433.12 393.518C433.2 393.498 433.27 393.478 433.35 393.458C434.43 393.168 435.5 392.918 436.58 392.708C436.83 392.658 437.07 392.608 437.32 392.568C438.04 392.428 438.76 392.318 439.47 392.218C445.459 391.453 451.521 391.453 457.51 392.218Z" fill="white"/>
<path d="M733.8 290.668C732.98 290.518 732.16 290.378 731.34 290.238C713.977 287.279 696.339 286.253 678.75 287.178C677.86 287.218 676.97 287.268 676.08 287.328C651.673 288.82 627.644 294.086 604.85 302.938C604.845 302.944 604.838 302.947 604.83 302.948C604.582 303.032 604.338 303.129 604.1 303.238H604.09C598.79 305.318 593.573 307.602 588.44 310.088C578.79 314.778 569.4 320.368 561.63 327.858C555.252 334.042 550.406 341.63 547.48 350.018C547.17 350.848 546.88 351.698 546.6 352.548C546.39 353.228 546.18 353.908 545.98 354.588C543.23 363.998 541.52 373.948 536.53 382.528C534.358 386.274 531.482 389.564 528.06 392.218C526.949 393.076 525.79 393.871 524.59 394.598H518.66C520.293 393.922 521.874 393.126 523.39 392.218C527.196 389.965 530.457 386.899 532.94 383.238C538.59 374.868 540.37 364.608 543.07 355.058C543.53 353.438 544.02 351.858 544.57 350.298C547.225 342.147 551.6 334.661 557.4 328.348C564.75 320.498 573.94 314.528 583.43 309.618C589.53 306.468 595.81 303.618 602.22 301.068C603.05 300.738 603.88 300.408 604.72 300.088C645.321 284.665 689.308 280.384 732.12 287.688C732.95 287.818 733.77 287.968 734.59 288.118C736.27 288.428 735.47 290.968 733.8 290.668Z" fill="white"/>
<path d="M602.592 302.283C599.999 294.207 600.362 285.472 603.615 277.638C606.868 269.804 612.8 263.382 620.351 259.518C621.882 258.741 623.16 261.083 621.628 261.861C614.59 265.446 609.065 271.429 606.05 278.73C603.036 286.031 602.73 294.169 605.189 301.675C605.722 303.307 603.121 303.906 602.592 302.283Z" fill="white"/>
<path d="M546.739 349.633C562.09 357.698 579.916 359.68 596.662 355.185C598.321 354.738 598.927 357.336 597.27 357.783C579.834 362.428 561.288 360.327 545.333 351.9C543.812 351.096 545.227 348.834 546.739 349.633Z" fill="white"/>
<path d="M678.637 286.347C678.989 289.681 680.163 292.876 682.055 295.644C683.947 298.411 686.496 300.666 689.474 302.205C691.004 302.99 689.587 305.251 688.068 304.472C684.785 302.756 681.972 300.262 679.876 297.209C677.779 294.156 676.462 290.635 676.039 286.955C675.97 286.612 676.035 286.255 676.22 285.957C676.405 285.659 676.696 285.443 677.034 285.353C677.378 285.274 677.74 285.334 678.04 285.52C678.34 285.707 678.555 286.004 678.637 286.347Z" fill="white"/>
<path d="M459.047 200.363C458.528 200.362 458.01 200.335 457.494 200.28L342.513 188.002C341.599 187.905 340.713 187.628 339.906 187.188C339.099 186.748 338.386 186.154 337.809 185.438C337.231 184.723 336.801 183.901 336.541 183.019C336.281 182.137 336.198 181.213 336.296 180.299L337.916 165.125L337.933 165.127C338.248 163.386 339.21 161.829 340.626 160.767C342.042 159.706 343.807 159.22 345.566 159.406L460.547 171.683C464.205 172.074 467.574 173.852 469.961 176.652C472.348 179.451 473.571 183.059 473.379 186.733C473.187 190.407 471.594 193.868 468.928 196.403C466.262 198.938 462.726 200.355 459.047 200.363Z" fill="#008080"/>
<path d="M473.266 393.297H458.506C456.65 393.295 454.871 392.557 453.559 391.245C452.247 389.933 451.508 388.153 451.506 386.297V263.283C451.508 261.427 452.247 259.648 453.559 258.336C454.871 257.023 456.65 256.285 458.506 256.283H473.266C475.122 256.285 476.901 257.023 478.214 258.336C479.526 259.648 480.264 261.427 480.266 263.283V386.297C480.264 388.153 479.526 389.933 478.214 391.245C476.901 392.557 475.122 393.295 473.266 393.297Z" fill="#008080"/>
<path d="M438.074 393.297H423.314C421.458 393.295 419.679 392.557 418.367 391.245C417.054 389.933 416.316 388.153 416.314 386.297V263.283C416.316 261.427 417.054 259.648 418.367 258.336C419.679 257.023 421.458 256.285 423.314 256.283H438.074C439.93 256.285 441.709 257.023 443.021 258.336C444.334 259.648 445.072 261.427 445.074 263.283V386.297C445.072 388.153 444.334 389.933 443.021 391.245C441.709 392.557 439.93 393.295 438.074 393.297Z" fill="#008080"/>
<path d="M461.823 128.405C489.99 128.405 512.823 105.571 512.823 77.4048C512.823 49.2383 489.99 26.4048 461.823 26.4048C433.656 26.4048 410.823 49.2383 410.823 77.4048C410.823 105.571 433.656 128.405 461.823 128.405Z" fill="#008080"/>
<path d="M433.785 98.8135C430.48 98.7217 426.365 98.607 423.195 96.2915C422.252 95.5738 421.476 94.6583 420.923 93.6093C420.371 92.5603 420.054 91.4031 419.995 90.2188C419.938 89.3771 420.076 88.5335 420.399 87.7541C420.722 86.9746 421.22 86.2804 421.856 85.7256C423.511 84.3266 425.929 83.9985 428.534 84.7642L425.835 65.0386L427.816 64.7671L430.989 87.957L429.335 87.1978C427.416 86.3179 424.783 85.8701 423.147 87.2529C422.745 87.6145 422.432 88.0638 422.232 88.5659C422.032 89.0681 421.951 89.6097 421.994 90.1484C422.042 91.0299 422.28 91.8905 422.691 92.6718C423.102 93.4532 423.676 94.1368 424.375 94.6763C426.842 96.478 430.121 96.7104 433.841 96.8145L433.785 98.8135Z" fill="#2F2E41"/>
<path d="M416.036 66.7397H405.264V68.7397H416.036V66.7397Z" fill="#2F2E41"/>
<path d="M450.036 66.7397H439.264V68.7397H450.036V66.7397Z" fill="#2F2E41"/>
<path d="M345.589 269.548H15.9907C11.9606 269.543 8.09691 267.94 5.24721 265.091C2.39751 262.241 0.794565 258.377 0.790039 254.347V93.7485C0.79456 89.7185 2.39751 85.8547 5.24721 83.005C8.09691 80.1553 11.9606 78.5524 15.9907 78.5479H345.589C349.619 78.5524 353.483 80.1553 356.333 83.005C359.182 85.8547 360.785 89.7184 360.79 93.7485V254.347C360.785 258.377 359.182 262.241 356.333 265.091C353.483 267.94 349.619 269.543 345.589 269.548Z" fill="#CACACA"/>
<path d="M311.561 181.048H43.3819C41.6431 181.045 39.9473 180.506 38.5262 179.504C37.1051 178.502 36.028 177.086 35.4417 175.449L5.08886 90.292C4.63584 89.0209 4.49459 87.6597 4.67695 86.3227C4.85931 84.9857 5.35996 83.712 6.13683 82.6087C6.9137 81.5054 7.94408 80.6048 9.14136 79.9824C10.3386 79.36 11.6678 79.0342 13.0172 79.0322L348.246 78.5645H348.258C349.653 78.5645 351.026 78.9107 352.254 79.572C353.482 80.2333 354.527 81.1891 355.295 82.3536C356.063 83.5182 356.53 84.8551 356.654 86.2445C356.778 87.6339 356.555 89.0323 356.005 90.3145L319.309 175.939C318.66 177.456 317.58 178.749 316.203 179.657C314.825 180.566 313.211 181.049 311.561 181.048Z" fill="#E4E4E4"/>
<path d="M119.41 246.875H26.9341C24.6555 246.875 22.4703 245.97 20.8591 244.359C19.2479 242.748 18.3428 240.563 18.3428 238.284C18.3428 236.006 19.2479 233.82 20.8591 232.209C22.4703 230.598 24.6555 229.693 26.9341 229.693H119.41C121.688 229.693 123.874 230.598 125.485 232.209C127.096 233.82 128.001 236.006 128.001 238.284C128.001 240.563 127.096 242.748 125.485 244.359C123.874 245.97 121.688 246.875 119.41 246.875Z" fill="#F2F2F2"/>
<path d="M486.054 298.548H410.526C406.885 298.544 403.393 297.095 400.818 294.52C398.243 291.945 396.794 288.453 396.79 284.812V245.048C396.821 217.873 407.63 191.819 426.846 172.603C446.061 153.388 472.115 142.579 499.29 142.548H499.79V284.812C499.786 288.453 498.337 291.945 495.762 294.52C493.187 297.095 489.696 298.544 486.054 298.548Z" fill="#2F2E41"/>
<path d="M359.103 250.146C357.753 250.144 356.432 249.753 355.298 249.019C354.165 248.285 353.267 247.239 352.714 246.007L346.672 232.541C345.915 230.847 345.86 228.922 346.52 227.187C347.181 225.453 348.502 224.051 350.194 223.29L455.699 175.96C457.422 175.185 459.281 174.758 461.169 174.702C463.058 174.646 464.939 174.963 466.704 175.635C468.47 176.306 470.087 177.319 471.461 178.615C472.835 179.912 473.94 181.466 474.714 183.19C475.487 184.913 475.913 186.773 475.967 188.661C476.022 190.549 475.704 192.43 475.031 194.196C474.358 195.961 473.344 197.576 472.047 198.95C470.75 200.323 469.194 201.427 467.47 202.199L361.965 249.529C361.066 249.936 360.09 250.146 359.103 250.146Z" fill="#008080"/>
<path d="M464.048 71.309C464.887 69.5464 465.222 67.5861 465.016 65.645C464.81 63.7038 464.07 61.8577 462.879 60.3108C461.651 58.5858 460.08 57.1324 458.265 56.0413C456.45 54.9502 454.43 54.2449 452.33 53.9692C442.239 52.5159 432.446 58.707 422.42 56.4001C413.248 54.2899 410.303 44.099 413.664 36.0692C417.135 27.7792 425.475 21.9407 433.783 19.2122C443.25 16.0505 453.561 16.5707 462.663 20.6692C463.741 21.1707 465.334 20.3239 464.866 18.9752C463.481 14.9848 465.227 10.7514 468.22 7.98078C471.553 4.89524 476.338 3.73959 480.734 3.28911C489.072 2.49033 497.486 3.40924 505.455 5.98911C521.583 11.1179 535.554 22.5646 543.031 37.8258C546.863 45.7821 549.024 54.439 549.382 63.2628C549.739 72.0866 548.285 80.8901 545.11 89.1303C538.305 106.529 520.029 121.404 523.796 141.819C524.597 145.83 526.381 149.581 528.986 152.736C531.592 155.89 534.938 158.35 538.726 159.895C542.597 161.412 546.791 161.915 550.91 161.356C555.03 160.797 558.938 159.196 562.265 156.703C563.928 155.471 565.423 154.029 566.715 152.412C567.902 150.915 565.793 148.778 564.593 150.291C562.042 153.617 558.567 156.117 554.603 157.479C550.638 158.841 546.36 159.004 542.304 157.948C538.247 156.891 534.592 154.663 531.796 151.54C528.999 148.418 527.185 144.54 526.58 140.392C525.066 130.56 529.802 120.972 534.849 112.884C540.035 104.575 545.766 96.6924 548.952 87.3286C551.767 78.8878 552.891 69.9749 552.259 61.0996C551.627 52.2243 549.251 43.5606 545.269 35.604C537.48 20.2285 523.251 8.71111 506.972 3.32941C498.924 0.639004 490.423 -0.431502 481.96 0.179645C473.481 0.839255 463.347 4.25698 461.585 13.8115C461.192 15.7984 461.326 17.8536 461.973 19.7727L464.177 18.0787C447.584 10.3605 425.496 14.3432 414.184 29.2897C408.788 36.4194 407.126 46.6515 413.021 54.0437C419.497 62.1651 430.755 59.858 439.514 57.9891C445.028 56.8128 451.683 55.4684 456.806 58.6174C460.386 60.8177 463.592 65.5801 461.458 69.7947C460.588 71.5132 463.175 73.0337 464.048 71.309Z" fill="#2F2E41"/>
<path d="M649.68 393.408C649.681 393.564 649.65 393.719 649.591 393.864C649.531 394.008 649.443 394.14 649.333 394.25C649.222 394.361 649.091 394.448 648.946 394.508C648.802 394.568 648.647 394.598 648.49 394.598H1.19C0.874395 394.598 0.57171 394.472 0.348541 394.249C0.125373 394.026 0 393.723 0 393.408C0 393.092 0.125373 392.79 0.348541 392.566C0.57171 392.343 0.874395 392.218 1.19 392.218H648.49C648.647 392.217 648.802 392.248 648.946 392.307C649.091 392.367 649.222 392.455 649.333 392.565C649.443 392.676 649.531 392.807 649.591 392.952C649.65 393.096 649.681 393.251 649.68 393.408Z" fill="#3F3D56"/>
<path d="M180.29 202.048C191.888 202.048 201.29 192.646 201.29 181.048C201.29 169.45 191.888 160.048 180.29 160.048C168.692 160.048 159.29 169.45 159.29 181.048C159.29 192.646 168.692 202.048 180.29 202.048Z" fill="#008080"/>
</g>
<defs>
<clipPath id="clip0_3003_6">
<rect width="735.52" height="394.618" fill="white"/>
</clipPath>
</defs>
</svg>
