<svg width="517" height="465" viewBox="0 0 517 465" fill="none" xmlns="http://www.w3.org/2000/svg">
<g clip-path="url(#clip0_3003_96)">
<path d="M264.028 270.416L151.511 272.394C149.735 272.429 147.969 272.114 146.315 271.466C144.661 270.818 143.152 269.85 141.872 268.617C140.593 267.385 139.569 265.912 138.86 264.284C138.151 262.655 137.769 260.903 137.738 259.126C137.707 257.35 138.026 255.586 138.678 253.933C139.33 252.281 140.301 250.773 141.536 249.496C142.771 248.22 144.246 247.199 145.876 246.493C147.506 245.787 149.26 245.41 151.036 245.383L263.554 243.404C265.231 243.375 266.852 244.013 268.059 245.178C269.265 246.344 269.96 247.941 269.99 249.618L270.242 263.98C270.27 265.584 269.688 267.139 268.613 268.33C267.537 269.521 266.05 270.259 264.451 270.394C264.311 270.406 264.17 270.413 264.028 270.416Z" fill="#008080"/>
<path d="M242.299 274.086L149.988 278.3C149.158 278.338 148.329 278.212 147.547 277.93C146.766 277.647 146.048 277.213 145.435 276.653C144.821 276.093 144.324 275.418 143.971 274.666C143.619 273.914 143.418 273.099 143.38 272.27L142.403 250.869C142.326 249.193 142.919 247.555 144.05 246.316C145.181 245.076 146.758 244.337 148.434 244.261L240.745 240.047C241.575 240.009 242.404 240.135 243.185 240.417C243.966 240.7 244.684 241.133 245.298 241.693C245.911 242.253 246.409 242.928 246.761 243.681C247.114 244.433 247.315 245.247 247.353 246.077L248.33 267.478C248.402 269.112 247.84 270.711 246.76 271.94C245.681 273.169 244.167 273.933 242.537 274.071C242.459 274.077 242.379 274.083 242.299 274.086Z" fill="#2F2E41"/>
<path d="M86.1933 457.694V337.977C86.1952 336.3 86.8623 334.692 88.0482 333.506C89.2341 332.32 90.842 331.653 92.5191 331.651H106.883C108.56 331.653 110.168 332.32 111.354 333.506C112.54 334.692 113.207 336.3 113.209 337.977V457.694C113.207 459.371 112.54 460.979 111.354 462.164C110.168 463.35 108.56 464.017 106.883 464.019H92.5191C90.842 464.017 89.2341 463.35 88.0482 462.164C86.8623 460.979 86.1952 459.371 86.1933 457.694Z" fill="#008080"/>
<path d="M123.888 457.694V337.977C123.89 336.3 124.557 334.692 125.743 333.506C126.929 332.32 128.536 331.653 130.214 331.651H144.578C146.255 331.653 147.863 332.32 149.049 333.506C150.234 334.692 150.902 336.3 150.903 337.977V457.694C150.902 459.371 150.234 460.979 149.049 462.164C147.863 463.35 146.255 464.017 144.578 464.019H130.214C128.536 464.017 126.929 463.35 125.743 462.164C124.557 460.979 123.89 459.371 123.888 457.694Z" fill="#008080"/>
<path d="M127.639 206.713C155.051 206.713 177.272 184.492 177.272 157.08C177.272 129.669 155.051 107.447 127.639 107.447C100.227 107.447 78.006 129.669 78.006 157.08C78.006 184.492 100.227 206.713 127.639 206.713Z" fill="#008080"/>
<path d="M154.505 174.027C156.102 173.502 157.567 172.642 158.804 171.503C159.623 170.691 160.254 169.709 160.654 168.626C161.054 167.544 161.212 166.387 161.117 165.237C161.065 164.418 160.825 163.621 160.414 162.91C160.003 162.199 159.434 161.593 158.75 161.139C156.975 160 154.601 159.997 152.184 161.062L152.276 141.686L150.329 141.677L150.222 164.455L151.721 163.512C153.46 162.42 155.944 161.651 157.699 162.777C158.133 163.075 158.492 163.468 158.749 163.927C159.005 164.386 159.153 164.898 159.18 165.423C159.245 166.28 159.126 167.141 158.829 167.947C158.532 168.753 158.065 169.486 157.459 170.095C155.31 172.148 152.174 172.79 148.599 173.364L148.907 175.286C150.807 175.034 152.68 174.613 154.505 174.027Z" fill="#2F2E41"/>
<path d="M172.34 140.707L161.947 142.08L162.202 144.009L172.595 142.636L172.34 140.707Z" fill="#2F2E41"/>
<path d="M139.536 145.038L129.143 146.411L129.398 148.34L139.791 146.968L139.536 145.038Z" fill="#2F2E41"/>
<path d="M22.3395 153.161L93.6008 240.259C94.725 241.631 95.5677 243.212 96.0808 244.911C96.5939 246.609 96.7673 248.392 96.5912 250.158C96.415 251.923 95.8927 253.637 95.0541 255.2C94.2156 256.764 93.0772 258.147 91.7039 259.271C90.3307 260.394 88.7495 261.236 87.0508 261.749C85.352 262.261 83.569 262.434 81.8035 262.257C80.0381 262.08 78.3247 261.557 76.7614 260.718C75.1982 259.878 73.8155 258.739 72.6926 257.366L1.43085 170.269C0.904747 169.626 0.510421 168.885 0.270417 168.09C0.0304118 167.295 -0.0505917 166.46 0.0320438 165.634C0.114679 164.807 0.359321 164.005 0.752015 163.273C1.14471 162.541 1.67775 161.893 2.32071 161.367L13.4377 152.271C14.7363 151.209 16.4036 150.706 18.073 150.873C19.7424 151.04 21.2771 151.863 22.3395 153.161Z" fill="#008080"/>
<path d="M46.106 172.6L104.622 244.12C105.148 244.763 105.542 245.503 105.782 246.298C106.022 247.093 106.103 247.928 106.021 248.755C105.938 249.581 105.693 250.384 105.301 251.116C104.908 251.848 104.375 252.495 103.732 253.021L84.7436 268.557C84.1007 269.083 83.3605 269.478 82.5652 269.718C81.7699 269.958 80.9351 270.038 80.1085 269.956C79.2819 269.873 78.4796 269.628 77.7476 269.236C77.0156 268.843 76.3681 268.31 75.8421 267.667L17.3258 196.148C16.2653 194.849 15.7634 193.182 15.9302 191.513C16.0971 189.844 16.919 188.31 18.2157 187.247L37.2044 171.71C38.5029 170.648 40.1702 170.145 41.8395 170.312C43.5089 170.479 45.0435 171.302 46.106 172.6Z" fill="#2F2E41"/>
<path d="M451.802 85.6545C451.086 83.9555 449.888 82.5036 448.356 81.4784C446.824 80.4532 445.025 79.8999 443.181 79.8867H271.109C268.635 79.888 266.263 80.8712 264.514 82.6202C262.765 84.3692 261.782 86.741 261.781 89.2144V306.902C261.782 309.376 262.765 311.747 264.514 313.496C266.263 315.245 268.635 316.229 271.109 316.23H443.187C445.66 316.227 448.031 315.243 449.78 313.494C451.528 311.746 452.512 309.375 452.515 306.902V89.2144C452.519 87.9925 452.279 86.7821 451.808 85.6545H451.802ZM450.438 306.902C450.435 308.826 449.67 310.67 448.31 312.031C446.949 313.391 445.105 314.156 443.181 314.159H271.109C269.184 314.158 267.339 313.394 265.978 312.033C264.618 310.673 263.853 308.828 263.852 306.904V89.2157C263.855 87.292 264.62 85.4479 265.981 84.0876C267.341 82.7274 269.185 81.962 271.109 81.9594H443.187C444.637 81.9649 446.051 82.402 447.251 83.215C448.451 84.028 449.381 85.18 449.923 86.524C450.028 86.7918 450.119 87.0651 450.196 87.3427C450.36 87.9534 450.444 88.5831 450.444 89.2157L450.438 306.902Z" fill="#3F3D56"/>
<path d="M415.893 131.282H364.062C363.517 131.283 362.977 131.176 362.473 130.968C361.969 130.76 361.511 130.455 361.126 130.07C360.74 129.685 360.434 129.227 360.225 128.724C360.016 128.22 359.909 127.68 359.909 127.135C359.909 126.59 360.016 126.051 360.225 125.547C360.434 125.044 360.74 124.586 361.126 124.201C361.511 123.816 361.969 123.511 362.473 123.303C362.977 123.095 363.517 122.988 364.062 122.989H415.893C416.438 122.988 416.978 123.095 417.482 123.303C417.985 123.511 418.443 123.816 418.829 124.201C419.215 124.586 419.521 125.044 419.73 125.547C419.938 126.051 420.046 126.59 420.046 127.135C420.046 127.68 419.938 128.22 419.73 128.724C419.521 129.227 419.215 129.685 418.829 130.07C418.443 130.455 417.985 130.76 417.482 130.968C416.978 131.176 416.438 131.283 415.893 131.282Z" fill="#3F3D56"/>
<path d="M415.893 153.051H364.062C363.517 153.052 362.977 152.945 362.473 152.737C361.969 152.529 361.511 152.224 361.126 151.839C360.74 151.454 360.434 150.996 360.225 150.493C360.016 149.989 359.909 149.45 359.909 148.904C359.909 148.359 360.016 147.82 360.225 147.316C360.434 146.813 360.74 146.355 361.126 145.97C361.511 145.585 361.969 145.28 362.473 145.072C362.977 144.864 363.517 144.757 364.062 144.758H415.893C416.438 144.757 416.978 144.864 417.482 145.072C417.985 145.28 418.443 145.585 418.829 145.97C419.215 146.355 419.521 146.813 419.73 147.316C419.938 147.82 420.046 148.359 420.046 148.904C420.046 149.45 419.938 149.989 419.73 150.493C419.521 150.996 419.215 151.454 418.829 151.839C418.443 152.224 417.985 152.529 417.482 152.737C416.978 152.945 416.438 153.052 415.893 153.051Z" fill="#3F3D56"/>
<path d="M337.468 165.446H299.59C298.354 165.445 297.168 164.953 296.293 164.078C295.419 163.204 294.927 162.018 294.925 160.781V116.083C294.927 114.846 295.419 113.66 296.293 112.785C297.168 111.911 298.354 111.419 299.59 111.417H337.468C338.705 111.419 339.891 111.911 340.765 112.785C341.64 113.66 342.132 114.846 342.133 116.083V160.781C342.132 162.018 341.64 163.204 340.765 164.078C339.891 164.953 338.705 165.445 337.468 165.446Z" fill="#008080"/>
<path d="M415.533 197.625H298.396C297.296 197.625 296.241 197.188 295.464 196.411C294.686 195.633 294.249 194.578 294.249 193.479C294.249 192.379 294.686 191.324 295.464 190.547C296.241 189.769 297.296 189.332 298.396 189.332H415.533C416.633 189.332 417.688 189.769 418.465 190.547C419.243 191.324 419.68 192.379 419.68 193.479C419.68 194.578 419.243 195.633 418.465 196.411C417.688 197.188 416.633 197.625 415.533 197.625Z" fill="#CCCCCC"/>
<path d="M415.533 219.394H298.396C297.297 219.393 296.244 218.955 295.468 218.178C294.692 217.4 294.256 216.346 294.256 215.248C294.256 214.149 294.692 213.095 295.468 212.318C296.244 211.54 297.297 211.103 298.396 211.101H415.533C416.078 211.1 416.618 211.207 417.122 211.415C417.626 211.623 418.084 211.928 418.469 212.313C418.855 212.698 419.161 213.156 419.37 213.659C419.579 214.163 419.686 214.703 419.686 215.248C419.686 215.793 419.579 216.333 419.37 216.836C419.161 217.34 418.855 217.797 418.469 218.182C418.084 218.567 417.626 218.873 417.122 219.081C416.618 219.289 416.078 219.395 415.533 219.394Z" fill="#CCCCCC"/>
<path d="M415.533 241.163H298.396C297.297 241.161 296.244 240.724 295.468 239.946C294.692 239.169 294.256 238.115 294.256 237.016C294.256 235.918 294.692 234.864 295.468 234.086C296.244 233.309 297.297 232.871 298.396 232.87H415.533C416.078 232.869 416.618 232.975 417.122 233.183C417.626 233.391 418.084 233.697 418.469 234.082C418.855 234.467 419.161 234.924 419.37 235.428C419.579 235.931 419.686 236.471 419.686 237.016C419.686 237.561 419.579 238.101 419.37 238.605C419.161 239.108 418.855 239.565 418.469 239.951C418.084 240.336 417.626 240.641 417.122 240.849C416.618 241.057 416.078 241.164 415.533 241.163Z" fill="#CCCCCC"/>
<path d="M415.533 262.932H298.396C297.297 262.93 296.244 262.493 295.468 261.715C294.692 260.938 294.256 259.884 294.256 258.785C294.256 257.687 294.692 256.633 295.468 255.855C296.244 255.078 297.297 254.64 298.396 254.639H415.533C416.078 254.638 416.618 254.744 417.122 254.952C417.626 255.16 418.084 255.466 418.469 255.851C418.855 256.236 419.161 256.693 419.37 257.197C419.579 257.7 419.686 258.24 419.686 258.785C419.686 259.33 419.579 259.87 419.37 260.374C419.161 260.877 418.855 261.335 418.469 261.72C418.084 262.105 417.626 262.41 417.122 262.618C416.618 262.826 416.078 262.933 415.533 262.932Z" fill="#CCCCCC"/>
<path d="M415.533 284.7H298.396C297.297 284.699 296.244 284.261 295.468 283.484C294.692 282.706 294.256 281.652 294.256 280.554C294.256 279.455 294.692 278.401 295.468 277.624C296.244 276.847 297.297 276.409 298.396 276.407H415.533C416.078 276.406 416.618 276.513 417.122 276.721C417.626 276.929 418.084 277.234 418.469 277.619C418.855 278.005 419.161 278.462 419.37 278.966C419.579 279.469 419.686 280.009 419.686 280.554C419.686 281.099 419.579 281.639 419.37 282.142C419.161 282.646 418.855 283.103 418.469 283.488C418.084 283.873 417.626 284.179 417.122 284.387C416.618 284.595 416.078 284.701 415.533 284.7Z" fill="#CCCCCC"/>
<path d="M456.809 118.724C489.594 118.724 516.171 92.1467 516.171 59.3619C516.171 26.5773 489.594 0 456.809 0C424.025 0 397.447 26.5773 397.447 59.3619C397.447 92.1467 424.025 118.724 456.809 118.724Z" fill="#008080"/>
<path d="M455.66 100.222C459.518 100.222 462.645 97.0949 462.645 93.2373C462.645 89.3797 459.518 86.2524 455.66 86.2524C451.802 86.2524 448.675 89.3797 448.675 93.2373C448.675 97.0949 451.802 100.222 455.66 100.222Z" fill="white"/>
<path d="M454.912 20.3521C449.646 20.4043 444.609 22.5094 440.872 26.2192C437.135 29.9291 434.993 34.9508 434.902 40.2159C434.901 40.3166 434.9 41.0253 434.9 41.9521C434.9 43.311 435.44 44.6143 436.401 45.5752C437.362 46.5361 438.665 47.0761 440.024 47.0762C441.384 47.0759 442.688 46.5354 443.649 45.5736C444.611 44.6118 445.151 43.3075 445.15 41.9476V41.9442C445.15 41.3138 445.15 40.8774 445.15 40.8506C445.149 39.1636 445.588 37.5056 446.423 36.0396C447.258 34.5737 448.46 33.3503 449.911 32.4898C451.362 31.6293 453.012 31.1613 454.699 31.1319C456.385 31.1026 458.051 31.5128 459.531 32.3222C461.011 33.1317 462.255 34.3125 463.14 35.7485C464.025 37.1845 464.522 38.8262 464.58 40.5122C464.638 42.1982 464.257 43.8703 463.473 45.3642C462.689 46.858 461.53 48.122 460.109 49.0319L460.111 49.0341C460.111 49.0341 452.818 53.7291 450.595 60.1697L450.597 60.1701C450.206 61.4895 450.008 62.8586 450.009 64.2347C450.009 64.8004 450.042 69.7499 450.106 73.7671C450.129 75.1532 450.695 76.475 451.683 77.4471C452.672 78.4193 454.003 78.964 455.389 78.9636C456.083 78.9636 456.77 78.8269 457.411 78.5614C458.052 78.2958 458.634 77.9066 459.125 77.416C459.616 76.9253 460.005 76.3428 460.27 75.7018C460.536 75.0608 460.672 74.3737 460.672 73.6799L460.672 73.6474C460.65 69.9684 460.638 65.6844 460.638 65.3735C460.638 61.4188 464.453 57.4784 467.587 54.9088C471.214 51.9709 473.764 47.912 474.835 43.3687C475.066 42.4322 475.193 41.4732 475.215 40.509C475.215 37.8618 474.693 35.2407 473.68 32.7951C472.667 30.3495 471.183 28.1273 469.311 26.2555C467.439 24.3838 465.217 22.899 462.771 21.886C460.326 20.873 457.705 20.3516 455.058 20.3516C455.009 20.3516 454.96 20.3518 454.912 20.3521Z" fill="white"/>
<path d="M115.196 135.12C124.083 129.278 135.251 131.907 145.128 132.67C154.052 133.359 164.63 132.68 170.907 125.388C177.437 117.803 176.892 106.54 171.485 98.5165C166.163 90.619 157.33 85.6323 147.984 84.3174C142.806 83.5588 137.527 83.8865 132.483 85.2795C127.438 86.6725 122.739 89.1005 118.684 92.4088L121.861 93.7244C120.01 76.0294 106.999 60.033 89.5439 55.694C71.8826 51.3038 52.1319 58.7965 42.7094 74.5437C33.4202 90.068 34.5206 111.731 47.8914 124.632C54.3125 130.827 63.0471 133.984 71.9114 132.299C80.0865 130.746 87.3503 124.786 88.8802 116.371C90.2984 108.569 87.2003 99.7077 79.6118 96.3006C77.5353 95.3323 75.2661 94.8481 72.9752 94.8847C70.6844 94.9213 68.4317 95.4777 66.3873 96.5119C64.5357 97.5537 62.9711 99.0382 61.8336 100.833C60.696 102.627 60.021 104.675 59.8689 106.795C59.7274 108.846 60.1454 110.898 61.0781 112.731C62.1316 114.881 65.3419 112.997 64.2912 110.852C63.6126 109.276 63.4197 107.532 63.7372 105.845C64.0548 104.158 64.8683 102.604 66.0739 101.382C68.8323 98.5005 73.1866 98.0219 76.852 99.2C83.5589 101.356 86.5201 109.05 85.2563 115.577C83.8406 122.888 77.5993 127.586 70.4926 128.789C62.7643 130.097 55.2276 126.833 49.8629 121.345C38.6276 109.85 37.6553 91.337 45.2343 77.6183C52.923 63.7012 69.3237 56.2282 84.9457 58.5626C100.393 60.871 113.115 73.0212 117.08 88.0029C117.58 89.8799 117.934 91.7928 118.139 93.7244C118.152 94.0865 118.269 94.4374 118.475 94.7352C118.682 95.0329 118.97 95.2649 119.304 95.4036C119.639 95.5423 120.007 95.5818 120.363 95.5173C120.72 95.4528 121.051 95.2872 121.316 95.04C134.516 84.0773 156.47 85.2531 167.294 99.0445C172.602 105.808 174.166 116.311 167.967 123.105C162.065 129.574 152.264 129.581 144.203 128.872C133.891 127.966 122.555 125.835 113.318 131.907C111.325 133.217 113.187 136.441 115.196 135.12Z" fill="#2F2E41"/>
<path d="M155.219 379.725H80.7956C79.3157 379.723 77.8969 379.134 76.8505 378.088C75.8041 377.042 75.2155 375.623 75.2139 374.143V349.335C75.2155 347.855 75.8041 346.437 76.8505 345.39C77.8969 344.344 79.3157 343.755 80.7956 343.753H155.219C156.699 343.755 158.117 344.344 159.164 345.39C160.21 346.437 160.799 347.855 160.801 349.335V374.143C160.799 375.623 160.21 377.042 159.164 378.088C158.117 379.134 156.699 379.723 155.219 379.725Z" fill="#2F2E41"/>
<path d="M157.762 257.416C155.432 245.5 146.382 236.063 134.636 232.183C138.878 230.818 141.575 228.797 141.575 226.537C141.575 222.426 132.689 219.094 121.728 219.094C110.768 219.094 101.882 222.426 101.882 226.537C101.882 228.83 104.652 230.879 109.002 232.244C90.9938 237.613 77.9232 253.285 77.9232 271.74C77.9232 271.74 72.3799 307.275 68.0277 335.681C65.2433 353.854 80.4572 370.097 100.257 370.097H169.89C174.452 370.097 178.162 366.657 178.162 362.428C178.162 362.428 165.331 296.125 157.762 257.416Z" fill="#2F2E41"/>
</g>
<defs>
<clipPath id="clip0_3003_96">
<rect width="516.171" height="464.019" fill="white"/>
</clipPath>
</defs>
</svg>
